<?xml version="1.0" encoding="utf-8"?>
<svg xmlns="http://www.w3.org/2000/svg" viewBox="0 0 40 40" width="48" height="48">
  <circle cx="20" cy="20" r="17" fill="black" style="" transform="matrix(1.030166, 0, 0, 1.042735, -0.090498, -0.128205)"/>
  <g transform="matrix(1.034965, 0, 0, 1.076473, 8.690676, 6.474403)" style="">
    <path d="M1 21h4V9H1v12zM23 10c0-1.1-.9-2-2-2h-6.31l.95-4.57.03-.32 c0-.41-.17-.79-.44-1.06L14.17 2 7.59 8.59C7.22 8.95 7 9.45 7 10v9c0 1.1.9 2 2 2h9c.83 0 1.54-.5 1.84-1.22l3.02-7.05c.09-.23.14-.47.14-.73v-1z" fill="orange"/>
  </g>
</svg>
