<?xml version="1.0" standalone="no"?>
<!DOCTYPE svg PUBLIC "-//W3C//DTD SVG 20010904//EN"
 "http://www.w3.org/TR/2001/REC-SVG-20010904/DTD/svg10.dtd">
<svg version="1.0" xmlns="http://www.w3.org/2000/svg"
 width="2400.000000pt" height="2400.000000pt" viewBox="0 0 2400.000000 2400.000000"
 preserveAspectRatio="xMidYMid meet">

<g transform="translate(0.000000,2400.000000) scale(0.100000,-0.100000)"
fill="#000000" stroke="none">
<path d="M13208 17315 c-2 -2 -44 -5 -94 -9 -51 -3 -98 -8 -105 -10 -8 -3 -33
-7 -56 -10 -61 -8 -91 -15 -163 -42 -59 -21 -157 -46 -235 -60 -161 -27 -229
-52 -276 -100 -36 -38 -65 -54 -144 -80 -83 -27 -144 -61 -188 -106 -48 -48
-84 -78 -94 -78 -14 0 -83 -53 -83 -64 0 -17 -46 -63 -93 -94 -54 -34 -83 -62
-91 -87 -7 -23 -79 -102 -114 -125 -12 -8 -32 -35 -44 -60 -11 -25 -32 -59
-44 -77 -13 -17 -24 -36 -24 -40 0 -5 -16 -25 -36 -44 -32 -30 -84 -118 -84
-142 0 -18 -59 -136 -92 -183 -53 -75 -66 -112 -89 -241 -11 -65 -33 -176 -49
-248 -33 -150 -36 -164 -49 -307 -9 -97 -2 -246 15 -300 9 -29 15 -60 39 -198
71 -411 79 -443 134 -508 26 -30 50 -77 70 -132 48 -136 59 -158 101 -199 22
-21 53 -65 70 -97 17 -33 43 -71 59 -85 15 -14 30 -33 34 -42 3 -8 16 -17 28
-19 15 -2 27 -17 39 -48 10 -25 23 -44 28 -43 5 1 18 -7 27 -17 10 -11 25 -20
34 -20 13 0 13 -2 2 -9 -10 -6 1 -16 38 -36 32 -18 54 -37 57 -51 4 -16 11
-21 22 -17 10 4 13 2 8 -5 -9 -15 20 -46 34 -37 5 3 10 2 10 -4 0 -5 11 -16
24 -23 51 -28 112 -73 137 -99 30 -32 152 -99 180 -99 10 0 21 -4 24 -10 3 -5
14 -10 23 -10 10 0 40 -20 68 -45 57 -49 106 -67 289 -108 61 -14 166 -39 235
-57 69 -17 170 -38 225 -46 225 -33 524 -10 730 56 50 16 151 41 225 56 142
28 180 42 245 94 43 34 85 55 184 91 46 16 80 38 120 77 31 29 82 66 113 83
90 46 327 264 389 357 29 42 77 104 109 137 41 43 63 75 75 113 9 30 43 88 75
130 67 91 75 105 84 155 7 39 49 177 65 212 4 11 13 31 19 45 47 106 75 202
87 296 4 27 8 56 11 65 7 24 7 334 0 414 -4 39 -9 99 -12 135 -11 140 -38 250
-79 330 -23 44 -84 275 -86 322 0 13 -3 17 -6 9 -4 -9 -13 3 -26 30 -11 24
-33 60 -48 81 -26 32 -49 77 -103 203 -11 24 -39 57 -73 83 -30 24 -58 55 -64
69 -13 35 -50 82 -121 152 -34 34 -58 61 -54 61 12 0 -47 54 -89 81 -22 14
-58 49 -80 77 -34 45 -94 96 -132 112 -6 3 -35 28 -65 56 -43 41 -98 75 -128
80 -13 2 -85 40 -88 47 -2 4 -10 7 -17 7 -7 0 -15 3 -17 8 -1 4 -25 21 -53 39
-54 33 -124 58 -195 68 -58 9 -174 39 -242 64 -62 23 -131 37 -278 57 -65 9
-277 23 -282 19z"/>
<path d="M797 17203 c-16 -3 -48 -24 -73 -47 -41 -40 -44 -46 -44 -97 -1 -30
-1 -1006 -2 -2169 l-2 -2115 23 -50 c23 -52 52 -89 86 -108 15 -9 570 -13
2182 -17 l2162 -5 35 -34 c19 -18 45 -57 58 -85 l23 -51 1 -3190 c0 -2525 3
-3198 13 -3228 16 -47 58 -79 138 -106 l62 -21 2156 0 c1229 0 2163 4 2172 9
23 12 62 122 78 216 7 44 14 161 16 260 4 175 5 1185 3 1905 -1 195 -1 1352 0
2570 0 1218 0 2370 0 2560 -1 190 -1 957 0 1705 1 1253 -2 1697 -12 1928 -3
74 -6 86 -18 77 -14 -13 -25 5 -43 70 l-7 25 -4490 1 c-2469 1 -4502 -1 -4517
-3z"/>
<path d="M18027 17199 c-41 -9 -120 -50 -151 -77 -28 -26 -65 -105 -81 -177
-9 -36 -20 -77 -27 -93 -32 -79 -63 -142 -92 -187 -19 -28 -42 -86 -54 -131
-31 -119 -56 -181 -106 -258 -24 -38 -49 -89 -56 -115 -6 -25 -16 -64 -21 -86
-18 -71 -51 -146 -94 -209 -32 -48 -50 -92 -75 -186 -27 -97 -45 -142 -89
-213 -40 -67 -61 -117 -81 -191 -32 -119 -52 -169 -84 -210 -40 -54 -73 -128
-96 -221 -25 -101 -35 -123 -95 -215 -30 -45 -50 -91 -65 -148 -30 -121 -54
-179 -103 -254 -24 -36 -50 -88 -57 -115 -50 -193 -64 -229 -121 -313 -36 -54
-46 -80 -90 -227 -13 -43 -42 -104 -72 -149 -40 -62 -56 -99 -78 -183 -37
-144 -49 -175 -103 -256 -26 -38 -51 -88 -57 -110 -36 -147 -60 -205 -123
-305 -21 -32 -46 -94 -61 -150 -34 -121 -56 -174 -100 -241 -39 -59 -50 -88
-90 -232 -21 -73 -41 -117 -80 -176 -28 -43 -57 -100 -64 -127 -34 -135 -66
-217 -106 -274 -23 -33 -50 -86 -59 -118 -10 -31 -23 -75 -30 -97 -7 -22 -15
-46 -17 -54 -3 -12 -45 -96 -120 -241 -10 -19 -23 -60 -29 -90 -14 -75 -55
-181 -89 -227 -36 -50 -68 -120 -77 -169 -13 -71 -50 -158 -102 -241 -29 -45
-56 -102 -61 -125 -30 -132 -63 -221 -109 -291 -27 -41 -54 -96 -62 -123 -37
-142 -54 -187 -104 -268 -34 -55 -61 -115 -71 -155 -25 -97 -63 -195 -92 -238
-41 -60 -81 -152 -93 -212 -19 -95 -48 -165 -101 -237 -20 -27 -45 -77 -54
-110 -51 -172 -68 -217 -103 -271 -54 -81 -57 -86 -86 -194 -29 -109 -58 -180
-91 -224 -37 -50 -53 -89 -80 -191 -31 -117 -59 -182 -108 -249 -22 -31 -44
-80 -57 -130 -36 -128 -64 -197 -112 -271 -32 -49 -51 -94 -66 -156 -29 -116
-58 -192 -87 -227 -38 -44 -71 -119 -89 -199 -9 -40 -28 -103 -42 -140 -42
-112 -31 -173 39 -213 l42 -24 2470 -2 c1359 -1 2497 2 2529 7 75 11 96 31
139 135 18 44 54 112 78 150 52 81 60 99 94 220 23 80 84 211 105 225 14 10
39 67 55 130 30 116 55 180 105 268 32 57 57 117 71 172 27 109 53 170 104
246 29 43 50 91 69 160 29 101 53 159 120 276 20 37 46 103 57 148 21 91 44
144 98 233 43 71 65 129 81 208 11 58 49 140 103 225 20 31 47 98 66 165 28
100 53 154 122 268 9 15 28 74 43 131 17 65 41 129 64 168 70 120 100 185 113
246 17 81 50 164 87 218 46 68 61 103 83 191 20 82 64 182 118 268 16 26 38
84 50 130 28 113 53 177 93 234 50 71 57 88 87 198 27 98 77 217 91 217 13 0
67 134 80 200 17 83 48 155 98 225 28 38 47 81 62 138 30 115 44 148 106 258
35 63 63 128 79 185 27 102 50 157 99 238 19 32 44 90 56 130 50 174 62 204
96 256 53 81 68 115 98 220 25 87 48 137 120 263 15 26 37 84 47 130 26 108
36 132 106 247 18 30 43 86 54 125 54 176 64 202 89 240 44 64 77 137 95 206
23 88 62 183 96 234 35 51 45 76 74 185 26 94 65 189 88 212 26 26 67 117 87
191 28 109 47 155 95 232 46 74 72 136 81 195 8 47 52 158 78 195 49 69 74
133 116 290 5 22 23 63 40 90 56 96 89 171 120 275 18 58 48 134 68 170 59
104 77 150 101 243 22 85 62 169 102 213 10 11 28 58 40 105 l21 84 -27 58
-27 57 -2506 -1 c-1404 -1 -2524 -5 -2545 -10z"/>
</g>
</svg>
